Coordinates
version=1
nRows=33
nColumns=33
inDegrees=yes

Units are S.I. units (second, meters, Newtons, ...)
Angles are in degrees.

endheader
time	ground_thorax_rot_x	ground_thorax_rot_y	ground_thorax_rot_z	ground_thorax_tx	ground_thorax_ty	ground_thorax_tz	clav_prot_r	clav_elev_r	scapula_abduction_r	scapula_elevation_r	scapula_upward_rot_r	scapula_winging_r	shoulder_elv_r	plane_of_elev_r	axial_rot_r	elbow_flexion_r	pro_sup_r	wrist_flex_r	wrist_dev_r	clav_prot_l	clav_elev_l	scapula_abduction_l	scapula_elevation_l	scapula_upward_rot_l	scapula_winging_l	shoulder_elv_l	plane_of_elev_l	axial_rot_l	elbow_flexion_l	pro_sup_l	wrist_flex_l	wrist_dev_l	
5.3400	38.461117	12.514102	15.219436	-154.896366	828.040832	4.360191	15.780340	38.003710	39.802444	45.000000	-45.000000	1715.044175	-1185.148526	145.947700	180.000000	1810.663316	45.918841	24.053906	12.933118	10.772387	-45.000000	-41.605997	45.000000	-34.315925	-2782.884825	-1534.453628	139.505929	168.680433	1089.113812	18.669775	10.294290	-22.332869	
5.3500	38.330221	13.002359	15.984333	-150.391323	826.340577	4.422104	15.811488	38.025624	39.838330	45.000000	-45.000000	1715.187297	-1185.322650	145.916684	180.000000	1810.516057	44.961709	23.841068	13.334638	10.708119	-45.000000	-41.574766	45.000000	-34.261658	-2783.047986	-1534.679226	139.497347	168.765754	1089.032980	18.254138	10.695818	-22.153688	
5.3600	38.167817	13.537205	16.833532	-145.720391	824.436713	4.489205	15.828239	38.041313	39.841199	45.000000	-45.000000	1715.347306	-1185.517860	145.898496	180.000000	1810.345596	44.116246	23.630283	13.730817	10.629511	-45.000000	-41.503857	45.000000	-34.289318	-2783.207571	-1534.916304	139.493944	168.842349	1088.935438	18.020013	11.077870	-21.979064	
5.3700	37.977574	14.114815	17.752493	-140.914512	822.336293	4.562757	15.835591	38.053366	39.814997	45.000000	-45.000000	1715.521266	-1185.732939	145.892483	180.000000	1810.151456	43.398237	23.423808	14.115636	10.543266	-45.000000	-41.397118	45.000000	-34.398694	-2783.370884	-1535.168927	139.491501	168.922057	1088.820018	17.967020	11.435948	-21.812005	
5.3800	37.765671	14.719167	18.697922	-136.071977	820.071548	4.648452	15.839956	38.065361	39.765771	45.000000	-45.000000	1715.715980	-1185.968775	145.895126	180.000000	1809.941000	42.810490	23.219861	14.479464	10.472649	-45.000000	-41.285276	45.000000	-34.568832	-2783.559121	-1535.441814	139.484075	169.037749	1088.684106	18.086939	11.767786	-21.653276	
5.3900	37.537068	15.344964	19.661777	-131.216408	817.658654	4.745488	15.847022	38.078471	39.697606	45.000000	-45.000000	1715.928116	-1186.220187	145.908248	180.000000	1809.714751	42.351452	23.019395	14.819549	10.418181	-45.000000	-41.167632	45.000000	-34.806201	-2783.775307	-1535.736425	139.465980	169.218096	1088.523660	18.370413	12.077227	-21.505431	
5.4000	37.295066	15.979304	20.612128	-126.428326	815.134165	4.856437	15.859176	38.093756	39.612156	45.000000	-45.000000	1716.163265	-1186.486805	145.930216	180.000000	1809.478024	42.012612	22.820135	15.130832	10.396655	-45.000000	-41.065296	45.000000	-35.095963	-2784.033178	-1536.054551	139.432870	169.487973	1088.334212	18.802732	12.364496	-21.368259	
5.4100	37.039724	16.622586	21.557965	-121.708880	812.514798	4.976656	15.876760	38.111390	39.509603	45.000000	-45.000000	1716.415190	-1186.765409	145.962384	180.000000	1809.228535	41.787391	22.624397	15.416148	10.404110	-45.000000	-40.966744	45.000000	-35.457659	-2784.328472	-1536.390920	139.382993	169.863085	1088.113794	19.366788	12.630863	-21.242885	
5.4200	36.765914	17.277947	22.509868	-117.065095	809.820691	5.100663	15.893171	38.129035	39.385654	45.000000	-45.000000	1716.680592	-1187.055048	146.004614	180.000000	1808.964728	41.669671	22.433480	15.677931	10.439044	-45.000000	-40.864620	45.000000	-35.903236	-2784.655226	-1536.735184	139.316204	170.342410	1087.863439	20.044215	12.877835	-21.130019	
5.4300	36.466746	17.957838	23.504181	-112.449801	807.057313	5.217714	15.901252	38.143215	39.230658	45.000000	-45.000000	1716.951855	-1187.349656	146.060427	180.000000	1808.682453	41.656884	22.250608	15.920732	10.480130	-45.000000	-40.731091	45.000000	-36.457733	-2784.993242	-1537.077829	139.235548	170.909289	1087.582095	20.820027	13.109937	-21.030584	
5.4400	36.139071	18.662659	24.539569	-107.888603	804.251292	5.321940	15.895479	38.152084	39.040892	45.000000	-45.000000	1717.227190	-1187.648837	146.128444	180.000000	1808.381848	41.743488	22.074870	16.144078	10.528244	-45.000000	-40.567739	45.000000	-37.114631	-2785.337236	-1537.414945	139.140759	171.546473	1087.270416	21.677034	13.324979	-20.942289	
5.4500	35.783667	19.390614	25.615250	-103.406555	801.429271	5.407522	15.873823	38.154812	38.816693	45.000000	-45.000000	1717.502310	-1187.949898	146.205923	180.000000	1808.065097	41.918234	21.904413	16.347505	10.584308	-45.000000	-40.374399	45.000000	-37.871735	-2785.681723	-1537.743086	139.031981	172.249744	1086.929774	22.596462	13.523218	-20.862545	
5.4600	35.397116	20.141290	26.732733	-99.028669	798.618250	5.469547	15.823449	38.145207	38.557868	45.000000	-45.000000	1717.774263	-1188.256465	146.291919	180.000000	1807.729233	42.166956	21.736221	16.532231	10.656947	-45.000000	-40.156703	45.000000	-38.727991	-2786.015929	-1538.057140	138.906798	173.004116	1086.566854	23.559419	13.704737	-20.788688	
5.4700	34.981733	20.912023	27.887537	-94.779289	795.845446	5.504606	15.736902	38.119052	38.265004	45.000000	-45.000000	1718.037193	-1188.567396	146.382054	180.000000	1807.377259	42.472479	21.567398	16.698518	10.751445	-45.000000	-39.917246	45.000000	-39.673100	-2786.328608	-1538.356247	138.760807	173.789253	1086.184804	24.550142	13.870452	-20.717356	
5.4800	34.533906	21.708704	29.080080	-90.681802	793.138707	5.511445	15.604420	38.070174	37.938329	45.000000	-45.000000	1718.293792	-1188.882383	146.491200	180.000000	1807.010505	42.816224	21.392902	16.843911	10.869907	-45.000000	-39.680887	45.000000	-40.692556	-2786.605936	-1538.647836	138.593911	174.575964	1085.785139	25.550477	14.018093	-20.642246	
5.4900	34.084276	22.483808	30.249543	-86.757182	790.526468	5.490977	15.482021	38.024912	37.607511	45.000000	-45.000000	1718.543699	-1189.196528	146.605450	180.000000	1806.643941	43.185749	21.214581	16.960692	10.969797	-45.000000	-39.441422	45.000000	-41.701124	-2786.865820	-1538.933204	138.430589	175.373995	1085.373606	26.560944	14.139917	-20.568268	
5.5000	33.637396	23.227951	31.375428	-83.024072	788.037736	5.446361	15.376853	37.987794	37.275842	45.000000	-45.000000	1718.792113	-1189.504318	146.728028	180.000000	1806.278453	43.564995	21.030175	17.047020	11.050147	-45.000000	-39.219142	45.000000	-42.652024	-2787.114257	-1539.214458	138.290727	176.142402	1084.959639	27.573400	14.228662	-20.495660	
5.5100	33.215580	23.900224	32.401435	-79.498039	785.700919	5.382425	15.308474	37.963583	36.959732	45.000000	-45.000000	1719.043211	-1189.798969	146.846273	180.000000	1805.933072	43.938084	20.840601	17.098273	11.099112	-45.000000	-39.036093	45.000000	-43.433626	-2787.340114	-1539.509992	138.197635	176.815691	1084.559127	28.578335	14.281757	-20.425828	
5.5200	32.803120	24.522442	33.354834	-76.192683	783.542809	5.305472	15.257999	37.942679	36.645670	45.000000	-45.000000	1719.303577	-1190.075515	146.973167	180.000000	1805.601236	44.291286	20.643064	17.118403	11.132880	-45.000000	-38.902812	45.000000	-44.049464	-2787.543288	-1539.817708	138.174086	177.311427	1084.181715	29.541806	14.293499	-20.353331	
5.5300	32.432633	25.048238	34.181324	-73.119825	781.587374	5.222266	15.258139	37.937238	36.363352	45.000000	-45.000000	1719.567381	-1190.333250	147.084710	180.000000	1805.298683	44.621706	20.445508	17.108117	11.129218	-45.000000	-38.797886	45.000000	-44.447574	-2787.733250	-1540.136027	138.236191	177.598895	1083.849801	30.441517	14.263336	-20.283800	
5.5400	32.083888	25.514213	34.931068	-70.291155	779.854870	5.139563	15.270131	37.933097	36.094369	45.000000	-45.000000	1719.828538	-1190.571301	147.183810	180.000000	1805.009321	44.929244	20.250845	17.080497	11.122155	-45.000000	-38.700436	45.000000	-44.711855	-2787.916530	-1540.441372	138.378144	177.643417	1083.567142	31.242042	14.193249	-20.213663	
5.5500	31.778199	25.898009	35.574019	-67.717911	778.361119	5.062967	15.290803	37.924729	35.858157	45.000000	-45.000000	1720.078671	-1190.789310	147.260495	180.000000	1804.752327	45.218044	20.067663	17.038200	11.112847	-45.000000	-38.608626	45.000000	-44.846086	-2788.077441	-1540.739238	138.575508	177.452606	1083.343801	31.923488	14.094083	-20.143140	
5.5600	31.500100	26.232608	36.153797	-65.411444	777.117580	4.996650	15.306453	37.913054	35.645924	45.000000	-45.000000	1720.314507	-1190.983339	147.326987	180.000000	1804.517435	45.498319	19.901302	16.988882	11.106483	-45.000000	-38.498312	45.000000	-44.939969	-2788.229777	-1541.004823	138.808933	177.082188	1083.163531	32.471567	13.971064	-20.070225	
5.5700	31.283245	26.473902	36.600433	-63.383127	776.131935	4.942497	15.348255	37.912038	35.489095	45.000000	-45.000000	1720.532111	-1191.152242	147.367381	180.000000	1804.328163	45.783401	19.764195	16.930036	11.075023	-45.000000	-38.379824	45.000000	-44.975480	-2788.376103	-1541.235946	139.046949	176.621045	1083.036091	32.900564	13.833806	-20.004501	
5.5800	31.112596	26.648350	36.937122	-61.646126	775.407819	4.899931	15.392135	37.919631	35.384692	45.000000	-45.000000	1720.723037	-1191.301299	147.392695	180.000000	1804.176964	46.083659	19.661815	16.868674	11.040257	-45.000000	-38.247023	45.000000	-45.000000	-2788.519734	-1541.410716	139.263718	176.124830	1082.951813	33.218253	13.685537	-19.947189	
5.5900	30.994803	26.749937	37.131609	-60.215134	774.944280	4.866137	15.430168	37.925420	35.328664	45.000000	-45.000000	1720.887608	-1191.425137	147.398139	180.000000	1804.085167	46.404893	19.599063	16.801940	11.001976	-45.000000	-38.154749	45.000000	-45.000000	-2788.632624	-1541.544438	139.426059	175.626273	1082.925592	33.430088	13.535856	-19.899935	
5.6000	30.916335	26.801070	37.219674	-59.106632	774.735081	4.836645	15.456381	37.935488	35.322877	45.000000	-45.000000	1721.020902	-1191.527587	147.399159	180.000000	1804.047047	46.756772	19.579509	16.730679	10.963560	-45.000000	-38.066776	45.000000	-45.000000	-2788.728235	-1541.620001	139.536622	175.180753	1082.937916	33.538813	13.383784	-19.861719	
5.6100	30.886795	26.795125	37.177940	-58.337283	774.768869	4.806194	15.484288	37.948284	35.359693	45.000000	-45.000000	1721.121310	-1191.595984	147.378617	180.000000	1804.074489	47.148160	19.606103	16.649659	10.910960	-45.000000	-38.013335	45.000000	-45.000000	-2788.801846	-1541.644852	139.579268	174.835559	1082.994758	33.552658	13.236934	-19.835613	
5.6200	30.897349	26.747034	37.035412	-57.923112	775.029856	4.769241	15.509303	37.965621	35.443036	45.000000	-45.000000	1721.183168	-1191.634126	147.350997	180.000000	1804.162653	47.583813	19.679058	16.555747	10.852711	-45.000000	-37.965164	45.000000	-45.000000	-2788.860044	-1541.611786	139.566137	174.637955	1083.073788	33.479998	13.095053	-19.819720	
5.6300	30.940817	26.664141	36.794341	-57.876358	775.499310	4.721114	15.537700	37.980795	35.539135	45.000000	-45.000000	1721.214382	-1191.621714	147.296757	180.000000	1804.318137	48.063361	19.796086	16.441906	10.782066	-45.000000	-37.954597	45.000000	-45.000000	-2788.893668	-1541.526783	139.487968	174.619315	1083.179458	33.331499	12.963165	-19.815985	
5.6400	31.008941	26.559175	36.489002	-58.204085	776.157840	4.658094	15.566550	37.997116	35.663159	45.000000	-45.000000	1721.209399	-1191.568188	147.240925	180.000000	1804.533720	48.585163	19.952552	16.302988	10.714247	-45.000000	-37.937625	45.000000	-45.000000	-2788.912761	-1541.382952	139.360738	174.809148	1083.292420	33.117789	12.839158	-19.821281	
5.6500	31.100148	26.432148	36.110496	-58.904286	776.986464	4.577941	15.600150	38.009636	35.800158	45.000000	-45.000000	1721.171842	-1191.464964	147.173251	180.000000	1804.811375	49.141495	20.144108	16.133438	10.645476	-45.000000	-37.946078	45.000000	-45.000000	-2788.908556	-1541.185066	139.173065	175.204795	1083.427574	32.852405	12.724403	-19.839473	
5.6600	31.207113	26.289787	35.680688	-59.968259	777.968843	4.479352	15.641446	38.029740	35.961968	45.000000	-45.000000	1721.100077	-1191.325421	147.118450	180.000000	1805.145863	49.721731	20.363672	15.929705	10.585494	-45.000000	-37.955363	45.000000	-45.000000	-2788.888797	-1540.924176	138.947611	175.791187	1083.585071	32.547688	12.612774	-19.870286	
